<?xml version="1.0" encoding="UTF-8"?>
<svg id="Capa_2" data-name="Capa 2" xmlns="http://www.w3.org/2000/svg" viewBox="0 0 997.07 282.83">
  <defs>
    <style>
      .cls-1 {
        fill: #323f48;
      }

      .cls-2 {
        fill: #838c2f;
      }
    </style>
  </defs>
  <g id="Capa_1-2" data-name="Capa 1">
    <g>
      <path class="cls-1" d="M83.49,144.65c-6.18.38-12.55-.8-15.59-6.71-4.13,2.92-9.22,5.26-13.16,8.43-4.48,3.61-7.91,10.66-14.86,7.59-5.09-2.25-6.34-11.3-5.76-16.21.19-1.64,1.01-3,1.36-4.4.17-.7.04-.82-.66-.66-6.84,1.59-15.44,10.24-18.77,16.26-1.87,3.38-5.1,13.42-7.94,15.09-1.43.84-3.16.73-4.54-.18-4.68-3.1,2.03-11.61,1.22-12.49-3.89-.24-6.13-4.73-3.94-8.02,4.97-7.18,13.85-14.27,18.23-21.59,4.27-7.12,7.52-17.08,11.2-24.78,8.17-17.08,16.6-33.09,30.87-45.9,3.23-2.9,9.88-9.46,14.28-5.75,5.1,4.3-2.05,17.24-4.18,22.09-12.33,20.52-27.49,39.07-41.99,58.04,5.55-2.33,14.91-3.96,15.37,4.58.23,4.33-2.68,8.13-1.89,13.85.07.5.31,2.15,1.15,1.72.26-.13,2.94-3.55,3.83-4.33,5.35-4.66,12.04-7.42,17.79-11.51.09-2.35-.42-4.5-.25-6.95.52-7.65,4.91-15.22,11.36-19.34,2.77-1.77,7.15-2.56,9.04-3.92,1.6-1.15,3.64-4.68,5.76-6.24,2.23-1.65,4.54-2.61,7.12-.91,3.51,2.31,1.43,6.61,2.44,8.11.14.2,3.35,1.62,4.33,2.39,1.38,1.09,2.88,2.9,3.7,4.46,2.04,3.89,1.72,8.34,3.51,12.32,11.52-12.22,11.73-29.07,17.03-44.14l-21.35,8.65c-5.16-.35-8.69-6.39-4.58-10.35,2.48-2.38,7.44-1.65,10.76-2.2,7.19-1.19,13.51-3.19,19.84-6.79,6.03-13.97,12.23-27.88,18.45-41.77,1.51-3.37,2.54-9.96,6.51-10.77s5.92,1.5,5.29,5.29c-.85,5.14-7.61,16.79-9.84,22.79-2.34,6.29-4.15,12.82-5.88,19.31,19.56-7.64,39.32-14.89,59.68-20.2,5.65-9.26,10.43-19.12,16.49-28.13,2.47-3.67,10.15-16.41,15.25-9.28,2.48,3.46.07,9.65-1.1,13.35-2.22,7.03-5.54,13.72-7.8,20.74,4.34-.55,8.83-1.21,13.2-1.43,3.26-.17,8.84-.54,11.87-.37,6.66.39,7.28,12.88,1.53,13.77-3.29.51-8.21-2.29-11.62-3.2-3.15-.84-16.61-2.86-18.58-1.1-.78.69-4.83,9.93-5.91,11.84-3.88,6.9-8.6,13.95-13.13,20.46-4.32,6.21-18.77,22.95-20.32,28.61-1.4,5.1-1.92,9.88,4.84,7.24,5.3-2.07,14.96-18.93,20.11-24.03,7.23-7.17,18.94-11.46,28.06-4.99,7.08,5.03,5.38,11.29,8.43,17.95,4.34,9.46,14.91,13.88,24.93,12.95,12.43-1.15,43.84-21.88,54.21-30.23,11.99-9.65,31.66-31.11,48.85-24.83,3.13,1.14,10.89,6.71,4.21,8.31-13.8,3.31-21.07,1.91-33.57,11.05-19.63,14.36-33.77,28.67-56.97,38.99-17.93,7.98-38.66,8.15-49.02-11.3-3.6-6.76-1.46-17.56-12.31-16.94-16.78.97-20.57,29.78-37.98,32.07-3.65.48-7.2.37-10.01-2.33-.93-.9-2.4-4.5-3.33-4.3-.33.07-4.17,3.8-5.11,4.5-7.93,5.88-17.71,11.63-27.79,12.28l7.63,5.56c14.03,13.6,15.8,41.59,13.42,59.86-2.19,16.85-13.83,32.97-30.65,37.48-11.79,3.16-23.04-.93-33.1-6.95v55.65h-19.67v-138.17ZM223.09,37.17l.98-3.82-2.39,3.6,1.41.22ZM219.27,44.38l-1.94.7-11.49,22.81c5.52-7.13,9.83-15.25,13.43-23.51ZM204.4,47.74c-20.23,5.36-39.57,13.45-58.8,21.56-3.09,7.98-5.89,16.06-9.11,24-1.41,3.49-4.58,8.53-5.29,11.98-.39,1.89-1.21,12.59-.21,13.46l2.33-.55c.58-13.39,8.31-26.79,19.78-33.72,4.52-2.73,16.96-8.1,17.28,1.4.18,5.34-9.38,16.43-13.01,20.62-4.52,5.23-9.51,9.99-14.37,14.88,2.7,3.31,9.43-.11,12.79-1.6,8.5-3.76,20.81-13.05,25.36-21.18,4.75-8.51,8.27-20.34,12.62-29.6,3.37-7.17,7.4-14.03,10.64-21.26ZM64.77,60.22c-.54-.55-4.49,3.72-5.04,4.31-7.67,8.27-13.62,19.64-18.46,29.75,4.77-4.9,8.97-10.98,12.86-16.64,1.15-1.67,11.36-16.69,10.64-17.42ZM157.38,95.72c-.33-.31-4.5,2.91-5.02,3.37-3.44,3.02-6.91,7.42-7.93,11.98,5.04-4.4,9.48-9.64,12.95-15.35ZM83.49,127.86h15.59c4.44-4.86,5.78-15.32-.47-19.19-4.21,6.8-9.6,13.19-15.6,18.48-1.16,1.02-6.89,4.74-7.11,5.12-.56.96.34,3.51,1.34,3.99l6.24.24v-8.64ZM128.11,127.86c-2.41-1.98-4.17-3.83-5.52-6.7l-7.44,8.14c4.25-1,8.58-1.67,12.95-1.44ZM138.18,128.82l-2.23-2.32-3.05.89c-.12.71.9.59,1.43.72,1.26.29,2.59.41,3.85.71ZM110.83,130.27l-2.84-.95-1,2.38,3.83-1.43ZM122.24,150.55c-6.55.69-13.6,4.62-18.53,8.82l-.1,42.17c-.07.95.41,1.31.96,1.92,7.51,8.19,23.84,12.06,31.94,2.62,11.59-13.51,12.01-58.3-14.27-55.53Z"/>
      <path class="cls-2" d="M576.25,224.78c-5.39,6.22-12.76,10.75-20.63,13.2-33.52,10.42-59.34-7.48-66.72-40.29,1.25-22.38-1.61-46.46,0-68.64,2.8-38.69,43.38-62.3,78.88-46.69,16.04,7.05,27.18,23.86,30.09,40.88l-23.54,8.47c-2.09-10.13-8.86-21.56-18.73-25.66-18.31-7.6-40.15,7.11-41.73,26.39-1.38,16.95,1.03,35.65-.03,52.79,5.33,43.38,59.91,36.61,60.47-5.06h-29.75v-25.43h52.3v83.72l-.72.72h-19.91v-14.39Z"/>
      <path class="cls-2" d="M757.38,188.31c-1.18.37-.43,6.18-.2,7.4,1.36,7.29,6.57,13.67,13.55,16.2,10.01,3.63,20.64-3.39,24.57-12.57l18.71,12.96c.6.43.74.85.64,1.57-.37,2.57-6.7,9.49-8.82,11.38-13.16,11.75-28.96,17.83-46.14,10.65-26.67-11.14-34.14-52.81-27.37-77.91,10.87-40.27,57.61-51.55,79.11-12.69,7.01,12.67,10.52,29.25,4.96,43.02h-59.02ZM794.57,168.64v-9.36c0-.81-1.85-5.25-2.39-6.25-6.48-12-28.18-11.37-33.69,1.36-.44,1.01-1.83,5.51-1.83,6.33v7.92h37.91Z"/>
      <path class="cls-1" d="M476.45,238.21h-20.63v-8.16c-6.98,8.05-19.78,12.4-30.25,10.34-11.71-2.31-19.98-10.86-23.62-21.96-11.59-35.27,22.06-58.21,53.87-55.07.84-16.12-15.95-26.31-29.9-17.67-4.65,2.88-6.34,6.47-8.44,11.24-.2.45.28.84-.75.66l-12.97-14.42-.17-1.06c10.1-17.24,33.6-25.33,52.23-17.85,14.2,5.69,19.38,19.76,20.66,34.03l-.02,79.91ZM454.38,210.14v-26.87c-1.06-.85-3.56-1.15-5.02-1.22-12.88-.63-25.65,5.1-29.28,18.25-1.76,6.37-1.71,12.38,3.82,16.8,9.49,7.58,23.17.4,30.48-6.97Z"/>
      <path class="cls-2" d="M679.41,238.21h-20.63v-7.68l-6.88,5.36c-20.28,11.43-41.41,2.52-47.58-19.75-9.51-34.33,23.77-55.84,54.46-52.77,1.13-20.91-25.61-28.88-36.37-10.7-.87,1.47-1.22,2.95-1.91,4.34-.23.45.13.77-.81.6l-12.98-14.41c-.66-1.44,2.75-5.42,3.85-6.71,22.62-26.37,68.24-17.47,68.88,20.86l-.02,80.86ZM657.34,182.56c-10.4-1.24-21.3-.13-28.8,7.91-6.71,7.19-10.05,21.59-.32,27.69,8.74,5.48,21.27-.38,27.93-6.83.31-.3.77-.43,1.19-.46v-28.31Z"/>
      <path class="cls-2" d="M997.05,238.21h-20.63v-7.68l-6.88,5.36c-20.25,11.42-41.41,2.52-47.58-19.75-9.51-34.33,23.77-55.82,54.46-52.77,1.13-20.91-25.61-28.88-36.37-10.7-.87,1.47-1.22,2.95-1.91,4.34-.23.45.13.77-.81.6l-12.98-14.41c-.66-1.44,2.75-5.42,3.85-6.71,22.6-26.35,68.28-17.48,68.88,20.86l-.02,80.86ZM974.98,182.56c-10.41-1.24-21.3-.13-28.8,7.91-6.71,7.19-10.05,21.59-.32,27.69,9.48,5.95,21.76-1.19,29.12-7.53v-28.07Z"/>
      <path class="cls-1" d="M197.2,124.5c.19,17.03-.25,34.09-.02,51.12.12,9.1-.31,20.99.48,29.75,1.44,16.01,29.77,12.63,29.77-2.9v-77.48h22.07v112.51l-.72.72h-21.35v-10.56c-7.97,7.84-19.05,10.42-30.01,9.61-15.53-1.15-22.41-13.2-23.27-27.59-1.63-27.26,1.28-56.1,0-83.53l.74-1.65h22.31Z"/>
      <path class="cls-1" d="M287.41,124.98v10.56c12.77-9.89,28.34-15.46,42.23-4.08,3.88,3.18,10.55,12.24,10.55,17.28v89.24l-.72.72h-21.11l-.72-.72v-83.96c-7.8-10.11-17.79-8.02-25.92.47-.55.57-4.31,4.95-4.31,5.29v77.72l-.72.72h-21.11l-.72-.72v-111.79l.72-.72h21.83Z"/>
      <path class="cls-1" d="M382.89,121.63h15.59l.72.72v24.71h-16.31v60.69c0,.5,1.61,4.48,2,5.19,2.68,4.92,9.03,6.98,14.31,5.6v21.83l-.79.64c-15.24.21-30.04-5.08-35.68-20.3-.66-1.77-2.39-7.54-2.39-9.13v-64.53h-16.07l-.72-.72v-24.47l.72-.72h14.63v-31.9l.72-.72h22.55l.72.72v32.38Z"/>
      <polygon class="cls-2" points="721.16 77.01 721.16 236.05 720.44 236.77 694.77 236.77 694.77 77.01 721.16 77.01"/>
      <path class="cls-2" d="M845.43,121.15v19.19c9.33-9.03,20.64-16.58,33.59-19.19v34.06h-9.36c-1.7,0-7.16,1.79-9,2.51-5.6,2.2-10.18,5.91-13.79,10.68v70.05l-.72.72h-21.59l-.72-.72v-117.3h21.59Z"/>
      <polygon class="cls-2" points="908.76 125.46 908.76 238.93 908.04 239.65 886.69 239.65 886.69 125.46 908.76 125.46"/>
      <polygon class="cls-2" points="938.99 84.68 906.12 116.35 888.13 116.35 912.84 84.68 938.99 84.68"/>
    </g>
  </g>
</svg>